Coordinates
version=1
nRows=25
nColumns=21
inDegrees=yes

Units are S.I. units (second, meters, Newtons, ...)
If the header above contains a line with 'inDegrees', this indicates whether rotational values are in degrees (yes) or radians (no).

endheader
time	bJoint_3	seatpos	slocangle	soarinout	sblpos	plocangle	poarinout	pblpos	hipangle	kneeangle	footangle	lbackangle	uarmleft_out	uarmleft_trn	uarmleft_up	se_inout	se_updown	handleleft_out	handleleft_trn	handleleft_up
      0.00000000	     -0.00000022	     -0.65636030	     77.36061778	     18.00406130	    -18.00406130	     76.14295157	     16.13020101	    -16.13020101	     23.54674247	    144.98811301	     78.53485548	     11.29394513	    -12.53516781	    -43.46386105	     51.24355374	      0.57183813	      7.33964614	     87.65026034	    -66.93837067	     68.89807797
      0.00500000	     -0.00000022	     -0.65612975	     77.32877203	     18.01627365	    -18.01627365	     76.07700141	     16.12584410	    -16.12584410	     23.55744447	    144.95909889	     78.51654335	     11.24462146	    -12.38905016	    -43.50690012	     51.18061709	      0.54923107	      7.03949398	     87.71868246	    -66.90646579	     68.77086350
      0.01000000	     -0.00000022	     -0.65535605	     77.30443917	     17.99440511	    -17.99440511	     76.07705250	     16.12586687	    -16.12586687	     23.59342578	    144.86170309	     78.45512887	     11.28955938	    -12.53228804	    -43.45892416	     51.22455884	      0.42840947	      7.12574339	     87.70404039	    -66.81763940	     68.77434875
      0.01500000	     -0.00000022	     -0.65513713	     77.27540754	     18.00596595	    -18.00596595	     76.01119015	     16.12149835	    -16.12149835	     23.60362548	    144.83413664	     78.43776212	     11.25560051	    -12.49157160	    -43.38374189	     51.22554970	      0.47677072	      7.12567009	     87.71726949	    -66.82729065	     68.76064251
      0.02000000	     -0.00000022	     -0.65413533	     77.21898452	     17.99648835	    -17.99648835	     76.01116907	     16.12151012	    -16.12151012	     23.65040313	    144.70794927	     78.35835241	     11.25110834	    -12.48606730	    -43.38014092	     51.22238621	      0.33273162	      6.90755623	     87.81095059	    -66.71385315	     68.67159366
      0.02500000	     -0.00000022	     -0.65336601	     77.20594348	     18.00234239	    -18.00234239	     75.94534907	     16.11712826	    -16.11712826	     23.68644072	    144.61099654	     78.29743726	     11.30184669	    -12.61686163	    -43.20568676	     51.29691260	      0.49859678	      7.18665277	     87.72984461	    -66.81672459	     68.71713000
      0.03000000	     -0.00000022	     -0.65311335	     77.15179571	     18.00590792	    -18.00590792	     75.92883429	     16.13468190	    -16.13468190	     23.69829741	    144.57914744	     78.27744485	     11.22921592	    -12.45865717	    -43.18630496	     51.24800118	      0.45770360	      6.94598761	     87.82978793	    -66.74881609	     68.64061663
      0.03500000	     -0.00000022	     -0.65212293	     77.09819881	     17.99548291	    -17.99548291	     75.86295953	     16.13026745	    -16.13026745	     23.74487970	    144.45425217	     78.19913187	     11.24025864	    -12.55862972	    -43.06599215	     51.29093042	      0.38339934	      7.02623428	     87.83003604	    -66.66894281	     68.62921399
      0.04000000	     -0.00000022	     -0.65112517	     77.05293265	     18.01426303	    -18.01426303	     75.79712337	     16.12583372	    -16.12583372	     23.79197126	    144.32836302	     78.12033427	     11.24170989	    -12.54096829	    -42.93301472	     51.31975025	      0.53194620	      7.00560320	     87.85519192	    -66.75112246	     68.58306257
      0.04500000	     -0.00000022	     -0.65013524	     76.99926284	     18.00392156	    -18.00392156	     75.73132365	     16.12138189	    -16.12138189	     23.83885526	    144.20339252	     78.04224777	     11.25289891	    -12.64010210	    -42.81349657	     51.36199095	      0.45754517	      7.08429337	     87.85605050	    -66.67158486	     68.57165821
      0.05000000	     -0.00000022	     -0.64911291	     76.93138755	     18.01343609	    -18.01343609	     75.64875453	     16.13445983	    -16.13445983	     23.88744158	    144.07425990	     77.96170147	     11.23131145	    -12.61285604	    -42.61909152	     51.37634283	      0.58435502	      7.12407066	     87.84644408	    -66.70288646	     68.51591488
      0.05500000	     -0.00000022	     -0.64810929	     76.87410347	     18.00404121	    -18.00404121	     75.58294548	     16.12995276	    -16.12995276	     23.93530361	    143.94741865	     77.88272226	     11.22727132	    -12.60998167	    -42.61548174	     51.37377901	      0.43816351	      6.90814829	     87.93934555	    -66.58881005	     68.42799189
      0.06000000	     -0.00000022	     -0.64635173	     76.80702821	     17.99993849	    -17.99993849	     75.51719711	     16.12543841	    -16.12543841	     24.01950901	    143.72512335	     77.74463237	     11.28953476	    -12.83597296	    -42.32029361	     51.48782406	      0.53416975	      7.26638323	     87.85859421	    -66.61542182	     68.46262053
      0.06500000	     -0.00000022	     -0.64534758	     76.74954048	     17.99059604	    -17.99059604	     75.43441619	     16.13845255	    -16.13845255	     24.06783890	    143.59802058	     77.66585947	     11.28563829	    -12.83325196	    -42.31704574	     51.48498670	      0.38770150	      7.05007428	     87.95149283	    -66.50146938	     68.37468041
      0.07000000	     -0.00000022	     -0.64411051	     76.65176564	     18.01200918	    -18.01200918	     75.36866628	     16.13386921	    -16.13386921	     24.12759623	    143.44134062	     77.56893685	     11.23077052	    -12.76266696	    -42.05141634	     51.51103246	      0.56114559	      7.08297309	     87.98348007	    -66.54830327	     68.32938522
      0.07500000	     -0.00000022	     -0.64308876	     76.57002540	     17.97990733	    -17.97990733	     75.30296191	     16.12927913	    -16.12927913	     24.17713232	    143.31185085	     77.48898318	     11.21009658	    -12.75413240	    -42.00601190	     51.49694578	      0.33605696	      6.90836689	     88.07669126	    -66.34558458	     68.25734911
      0.08000000	     -0.00000022	     -0.64133133	     76.50250578	     17.97595178	    -17.97595178	     75.21998595	     16.14219791	    -16.14219791	     24.26271261	    143.08895364	     77.35166625	     11.27299455	    -12.97879970	    -41.71128224	     51.60789447	      0.43160719	      7.26673663	     87.99589560	    -66.37256126	     68.29290953
      0.08500000	     -0.00000022	     -0.64009521	     76.40396711	     17.99754287	    -17.99754287	     75.08861102	     16.13291210	    -16.13291210	     24.32318935	    142.93204599	     77.25523534	     11.21863639	    -12.90794410	    -41.44666643	     51.63420934	      0.60469302	      7.29859774	     88.02763829	    -66.42014845	     68.24785181
      0.09000000	     -0.00000022	     -0.63812132	     76.31502676	     18.00089404	    -18.00089404	     75.02300315	     16.12823852	    -16.12823852	     24.42023893	    142.68126772	     77.10150666	     11.24399936	    -13.00784400	    -41.37318474	     51.27788924	      0.50614322	      7.10499298	     87.19064554	    -66.16032753	     67.27786084
      0.09500000	     -0.00000021	     -0.63708033	     76.22104304	     17.98761876	    -17.98761876	     74.93978102	     16.14104866	    -16.14104866	     24.47165479	    142.54890340	     77.02055819	     11.20626232	    -12.97492409	    -41.13502641	     51.27868552	      0.55519044	      7.18989937	     87.17882320	    -66.10243088	     67.23971090
      0.10000000	     -0.00000022	     -0.63509446	     76.11971848	     17.99696336	    -17.99696336	     74.80861061	     16.13159834	    -16.13159834	     24.57018344	    142.29618294	     76.86636638	     11.22138645	    -13.05623500	    -40.88716616	     51.34706825	      0.62656607	      7.24455642	     87.20346658	    -66.10687126	     67.18323211
      0.10500000	     -0.00000021	     -0.63310050	     76.00625991	     17.99055977	    -17.99055977	     74.65963669	     16.13949493	    -16.13949493	     24.66969122	    142.04215579	     76.71184701	     11.22327308	    -13.13845375	    -40.75683519	     51.38327615	      0.45160585	      7.10234485	     87.29719073	    -65.95195903	     67.08238003
      0.11000000	     -0.00000022	     -0.63130556	     75.90913968	     17.96483108	    -17.96483108	     74.59413967	     16.13472589	    -16.13472589	     24.75975579	    141.81324470	     76.57300049	     11.25523150	    -13.26104859	    -40.53268455	     51.43732559	      0.39475057	      7.21870137	     87.30569448	    -65.85372661	     67.06170194
      0.11500000	     -0.00000021	     -0.62929877	     75.80316252	     17.98873001	    -17.98873001	     74.44501851	     16.14252008	    -16.14252008	     24.86099082	    141.55704924	     76.41804006	     11.24831796	    -13.23655216	    -40.37833823	     51.46231660	      0.45403538	      6.99942549	     87.38812469	    -65.86438695	     66.90614192
      0.12000000	     -0.00000022	     -0.62729610	     75.67614147	     17.97551563	    -17.97551563	     74.31414171	     16.13276084	    -16.13276084	     24.96257936	    141.30109846	     76.26367782	     11.24754968	    -13.30998844	    -40.08962669	     51.51470973	      0.44692435	      7.09455845	     87.41390744	    -65.78091405	     66.86766728
